HIERARCHY
ROOT Hips
{
    OFFSET 0.000000 0.000000 0.000000
    CHANNELS 6 Xposition Yposition Zposition Zrotation Xrotation Yrotation
    JOINT Spine
    {
        OFFSET -0.000000 8.249566 0.000000
        CHANNELS 3 Zrotation Xrotation Yrotation
        JOINT Spine1
        {
            OFFSET -0.000000 22.751984 0.000000
            CHANNELS 3 Zrotation Xrotation Yrotation
            JOINT Neck
            {
                OFFSET -0.000000 22.658548 2.059868
                CHANNELS 3 Zrotation Xrotation Yrotation
                JOINT Head
                {
                    OFFSET -0.000000 14.084625 -2.012089
                    CHANNELS 3 Zrotation Xrotation Yrotation
                    End Site
                    {
                        OFFSET -0.000000 25.151115 0.000000
                    }
                }
            }
            JOINT LeftShoulder
            {
                OFFSET 4.014710 20.418900 0.142539
                CHANNELS 3 Zrotation Xrotation Yrotation
                JOINT LeftArm
                {
                    OFFSET 12.409162 0.000000 0.000000
                    CHANNELS 3 Zrotation Xrotation Yrotation
                    JOINT LeftForeArm
                    {
                        OFFSET 32.111938 0.000000 0.000000
                        CHANNELS 3 Zrotation Xrotation Yrotation
                        JOINT LeftHand
                        {
                            OFFSET 25.320286 0.000000 0.000000
                            CHANNELS 3 Zrotation Xrotation Yrotation
                            End Site
                            {
                                OFFSET 15.090670 0.000000 0.000000
                            }
                        }
                    }
                }
            }
            JOINT RightShoulder
            {
                OFFSET -4.019371 20.418900 0.142539
                CHANNELS 3 Zrotation Xrotation Yrotation
                JOINT RightArm
                {
                    OFFSET -12.409162 0.000000 0.000000
                    CHANNELS 3 Zrotation Xrotation Yrotation
                    JOINT RightForeArm
                    {
                        OFFSET -32.111938 0.000000 0.000000
                        CHANNELS 3 Zrotation Xrotation Yrotation
                        JOINT RightHand
                        {
                            OFFSET -25.320286 0.000000 0.000000
                            CHANNELS 3 Zrotation Xrotation Yrotation
                            End Site
                            {
                                OFFSET -15.090670 0.000000 0.000000
                            }
                        }
                    }
                }
            }
        }
    }
    JOINT LeftUpLeg
    {
        OFFSET 10.060447 0.000000 0.000000
        CHANNELS 3 Zrotation Xrotation Yrotation
        JOINT LeftLeg
        {
            OFFSET -0.000000 -49.683781 0.000000
            CHANNELS 3 Zrotation Xrotation Yrotation
            JOINT LeftFoot
            {
                OFFSET -0.000000 -37.035061 0.000000
                CHANNELS 3 Zrotation Xrotation Yrotation
                JOINT LeftToeBase
                {
                    OFFSET -0.000000 -6.539289 15.090670
                    CHANNELS 3 Zrotation Xrotation Yrotation
                    End Site
                    {
                        OFFSET -0.000000 0.000000 4.024179
                    }
                }
            }
        }
    }
    JOINT RightUpLeg
    {
        OFFSET -10.060447 0.000000 0.000000
        CHANNELS 3 Zrotation Xrotation Yrotation
        JOINT RightLeg
        {
            OFFSET -0.000000 -49.683781 0.000000
            CHANNELS 3 Zrotation Xrotation Yrotation
            JOINT RightFoot
            {
                OFFSET -0.000000 -37.035061 0.000000
                CHANNELS 3 Zrotation Xrotation Yrotation
                JOINT RightToeBase
                {
                    OFFSET -0.000000 -6.539289 15.090670
                    CHANNELS 3 Zrotation Xrotation Yrotation
                    End Site
                    {
                        OFFSET -0.000000 0.000000 4.024179
                    }
                }
            }
        }
    }
}
MOTION
Frames:    13
Frame Time:    0.008333
-20.221710    93.698257    113.376724    -3.171544    -6.462680    171.764938    -2.188952    2.975189    0.633044    -1.424612    3.081108    0.614520    1.926122    2.044091    2.389596    -1.316291    5.879546    2.115275    3.693503    8.527346    -5.440618    -55.841591    43.001415    -22.047281    2.026130    -1.896877    -19.322224    -9.909117    -0.794808    -8.715575    -5.399265    10.475539    -3.856471    44.285160    48.514320    37.593750    -7.101167    -7.412420    18.910843    17.585878    -5.040270    7.758583    -2.753623    -30.920599    -9.880667    -3.162627    15.160447    2.148392    0.775760    7.467109    7.539121    0.000000    0.000000    0.000000    -3.665817    3.378128    -4.651174    -0.566449    28.542370    -6.881196    9.354483    -4.852358    25.762365    0.000000    0.000000    0.000000    
-20.194954    93.810677    112.284378    -3.196084    -6.355863    171.940628    -2.355536    3.063552    0.490187    -1.476912    2.865601    0.464244    2.114553    2.220428    2.375318    -1.429878    6.079093    2.071182    3.751065    8.477074    -5.620822    -55.521915    43.148693    -22.372427    1.939052    -1.950327    -18.902214    -10.157975    -0.826101    -8.997738    -5.197138    10.702847    -4.010880    44.347050    48.775993    37.697144    -6.910743    -7.468068    18.092751    17.695375    -5.146553    7.914288    -2.801839    -30.744743    -10.080353    -3.694480    16.332472    2.594666    0.827770    6.621098    7.523146    0.000000    0.000000    0.000000    -3.769278    3.244704    -3.157997    0.051097    29.524471    -11.483664    9.410605    -1.664554    28.792896    0.000000    0.000000    0.000000    
-20.218534    93.913078    111.189819    -3.395520    -6.132517    172.082581    -2.521888    3.064857    0.268275    -1.709514    3.000724    0.245861    2.175070    2.367683    2.529666    -1.486090    5.993217    2.220740    3.988339    8.466311    -5.749920    -55.304146    43.285675    -22.619114    2.073916    -2.162429    -18.865681    -10.244514    -1.018234    -8.902822    -5.261764    10.737961    -3.988743    45.062561    48.747940    37.409752    -6.615821    -7.291682    17.569269    17.568653    -5.082520    7.743935    -3.180736    -30.437511    -9.817713    -3.791896    17.483326    2.452957    0.900290    5.877380    7.221672    0.000000    0.000000    0.000000    -4.186098    2.613904    -5.068138    -1.293659    31.660650    -12.812745    8.730272    2.170377    32.500805    0.000000    0.000000    0.000000    
-20.223406    94.040970    110.144234    -3.381943    -6.005034    172.127197    -2.422299    3.127146    0.129491    -2.050328    2.871064    0.114888    2.355235    2.761891    2.545795    -1.616336    5.838840    2.208804    4.188769    8.501560    -5.919813    -55.084167    43.192356    -22.834694    2.094261    -2.184713    -18.879686    -10.655812    -1.047617    -8.444041    -5.098263    10.893035    -3.952345    45.510147    48.772038    37.078098    -6.340047    -7.198287    17.214211    17.700359    -5.059623    7.632611    -3.193695    -30.199791    -9.738914    -4.193399    18.568510    2.400517    1.234858    5.145316    7.208926    0.000000    0.000000    0.000000    -4.295926    1.933416    -5.113247    -1.385940    36.305508    10.906299    6.938148    -3.994421    6.220280    0.000000    0.000000    0.000000    
-20.224976    94.146667    109.079315    -3.365536    -5.828024    172.172913    -2.310457    3.155574    -0.021413    -2.406273    2.925536    -0.024490    2.436304    2.766992    2.617754    -1.586097    6.118370    2.280483    4.480536    8.225835    -5.887517    -54.915401    43.482452    -23.050663    2.112050    -2.198599    -18.763849    -10.661919    -1.083612    -8.195432    -5.084772    10.894152    -3.876182    45.910469    49.002144    36.980175    -6.072767    -7.151664    16.532627    18.316683    -5.014476    7.840985    -3.201033    -29.923826    -9.245406    -4.436529    19.825100    1.107539    1.369975    4.189402    7.971536    0.000000    0.000000    0.000000    -4.398759    1.366431    -4.753229    -1.552600    38.221107    8.620180    7.700583    -1.369689    8.315478    0.000000    0.000000    0.000000    
-20.253574    94.221809    108.025154    -3.361438    -5.578749    172.111145    -2.310844    3.487295    0.030813    -2.622795    2.412469    0.015277    2.763945    3.557769    2.587913    -1.994105    5.594394    2.182510    4.586618    8.464176    -6.325095    -54.528328    43.486340    -23.359224    2.230496    -2.134656    -18.553308    -11.310520    -0.909354    -8.677723    -4.814689    11.285373    -3.948768    45.947491    49.384537    36.731453    -5.861145    -7.434244    16.326468    17.766516    -5.439856    7.446002    -3.204320    -29.500072    -9.200721    -4.808774    20.937225    -0.082115    1.404214    3.002551    9.276234    0.000000    0.000000    0.000000    -4.499376    0.528022    -4.934232    -2.314215    40.972176    10.861721    8.110431    0.279395    6.182167    0.000000    0.000000    0.000000    
-20.285957    94.297180    107.017586    -3.353976    -5.416580    171.873642    -2.142314    3.517543    -0.015155    -2.948318    2.474541    -0.017593    2.508037    3.480951    2.713237    -1.661854    6.013935    2.378701    4.839612    8.192139    -6.302938    -54.495010    43.676643    -23.408289    2.493170    -2.427987    -18.742153    -11.846534    -1.151600    -8.323730    -5.033459    11.202858    -3.755661    46.729988    49.575920    36.184978    -5.632120    -7.505774    16.297632    17.907450    -5.633830    6.828069    -3.135123    -29.102657    -8.711593    -5.023046    21.831514    -0.572136    1.901050    2.163291    9.556799    0.000000    0.000000    0.000000    -4.692909    -0.301993    -4.214854    -2.266163    43.437119    11.800960    8.620952    1.580044    4.584180    0.000000    0.000000    0.000000    
-20.346169    94.353935    105.998634    -3.317426    -5.229787    171.671478    -2.033532    3.719649    0.066056    -3.150937    2.269764    0.063625    2.657962    3.699885    2.750963    -1.961239    6.013702    2.378384    5.008496    8.139730    -6.526865    -54.331615    43.523735    -23.661779    2.510275    -2.092149    -18.787224    -11.933277    -0.832236    -8.067787    -5.069169    11.348287    -3.942247    46.538010    49.942543    36.505867    -5.093426    -7.638210    15.802964    18.036346    -5.867777    6.767390    -3.171971    -28.592735    -8.260760    -5.010365    22.563303    -0.787135    2.249080    1.242089    9.617245    0.000000    0.000000    0.000000    -4.824195    -1.262428    -4.189731    -3.059119    46.182747    13.509354    8.786141    2.862536    3.334147    0.000000    0.000000    0.000000    
-20.402496    94.383995    104.968048    -3.344662    -4.985268    171.371323    -1.967196    3.775235    0.109093    -3.353791    2.273333    0.111147    2.556956    3.800848    2.813383    -1.966450    6.344015    2.462637    5.165097    8.031146    -6.728489    -54.222630    43.633556    -23.664881    2.850472    -2.316338    -19.040480    -12.458897    -0.955220    -8.077318    -5.204717    11.366358    -3.776851    47.089237    50.209671    35.883915    -4.956259    -7.794658    16.042536    18.442511    -6.086194    6.289443    -3.273155    -27.889753    -7.815126    -4.918698    23.048010    -1.146364    2.613369    0.199708    9.914127    0.000000    0.000000    0.000000    -5.018471    -2.060942    -3.877189    -3.483299    48.469448    13.610470    9.143944    4.364561    3.161447    0.000000    0.000000    0.000000    
-20.472427    94.401093    103.985336    -3.356334    -4.816458    171.043091    -1.921650    3.845233    0.185672    -3.424229    2.216601    0.187430    2.702957    3.859340    2.874779    -2.575132    6.648057    2.464514    5.174033    7.852167    -6.767641    -53.958138    43.636272    -23.899746    2.955509    -2.299650    -19.151556    -12.710187    -0.898169    -8.093559    -5.437249    11.400924    -3.696899    47.036404    50.612183    36.036427    -4.539600    -7.971714    15.710113    18.817707    -6.314906    6.288159    -3.400117    -27.226723    -7.320552    -4.674924    23.316671    -0.569169    3.025428    -0.674700    9.269835    0.000000    0.000000    0.000000    -5.224513    -3.066019    -3.358315    -3.783154    51.028904    14.621627    9.449779    5.300179    2.094742    0.000000    0.000000    0.000000    
-20.566671    94.419983    102.986702    -3.441221    -4.568383    170.616608    -1.930585    3.999444    0.259737    -3.495625    2.082336    0.256054    2.322134    4.049990    2.971211    -2.298804    6.813435    2.639363    5.064995    7.868502    -6.703017    -53.386467    43.604431    -24.325449    2.946003    -2.408414    -19.377346    -12.701975    -1.011683    -8.017975    -5.668025    11.447656    -3.487790    47.068111    51.020626    35.987682    -4.242639    -8.171961    15.609667    19.217651    -6.564359    6.131704    -3.650267    -26.403374    -6.532448    -4.187252    23.476883    -0.450022    3.376617    -1.616882    8.827067    0.000000    0.000000    0.000000    -5.496844    -4.132424    -2.472532    -3.556738    53.481365    14.704206    9.706094    6.876865    1.284777    0.000000    0.000000    0.000000    
-20.661095    94.417603    102.024368    -3.537590    -4.336830    170.190994    -2.034531    4.192724    0.352510    -3.392888    1.736043    0.329641    2.351634    4.729629    3.153561    -2.923088    6.514823    2.780304    4.859868    7.935775    -7.031409    -53.291023    43.289082    -24.152618    3.149010    -2.368154    -19.673304    -12.753480    -0.956454    -7.734787    -5.826250    11.625648    -3.269939    46.833241    51.371147    36.063232    -3.879745    -8.259859    15.462342    19.534729    -6.706090    6.036388    -3.861629    -25.624081    -5.816490    -3.864646    23.612022    -0.204865    3.722601    -2.571991    8.417846    0.000000    0.000000    0.000000    -5.728920    -5.215530    -1.839102    -3.924828    55.731098    13.280311    9.777853    8.628357    2.803452    0.000000    0.000000    0.000000    
-20.743141    94.449852    101.048195    -3.770073    -4.136994    169.821533    -2.323766    4.148455    0.422812    -3.236462    1.937520    0.393498    2.206753    4.524879    3.193293    -3.147133    6.912166    2.824623    4.824005    7.687048    -6.973742    -53.006153    43.306400    -24.408339    3.348152    -2.513740    -20.026421    -12.681452    -1.044604    -7.889615    -6.137681    11.451300    -3.478982    46.545361    51.862297    36.353661    -3.505718    -8.437826    15.648376    19.951246    -6.972644    5.661075    -4.186751    -24.971619    -4.992891    -3.574262    23.971945    -0.687295    4.014429    -3.411070    8.468503    0.000000    0.000000    0.000000    -6.030289    -6.318188    -1.315554    -4.027525    58.027729    12.929502    9.756269    9.524720    2.422804    0.000000    0.000000    0.000000    
